<?xml version="1.0" encoding="UTF-8"?>
<svg xmlns="http://www.w3.org/2000/svg" xmlns:xlink="http://www.w3.org/1999/xlink" width="365pt" height="186.98pt" viewBox="0 0 365 186.98" version="1.1">
<defs>
<clipPath id="clip1">
  <path d="M 249 156 L 273 156 L 273 186.980469 L 249 186.980469 Z M 249 156 "/>
</clipPath>
</defs>
<g id="surface1">
<path style=" stroke:none;fill-rule:nonzero;fill:rgb(48.199463%,17.999268%,24.699402%);fill-opacity:1;" d="M 212.4375 79.5 C 209.621094 73.617188 202.285156 71.285156 196.011719 74.296875 C 189.742188 77.285156 185.199219 85.304688 187.992188 91.167969 C 190.789063 97.03125 199.855469 98.542969 206.128906 95.535156 C 212.398438 92.546875 215.214844 85.363281 212.4375 79.5 "/>
<path style=" stroke:none;fill-rule:nonzero;fill:rgb(48.199463%,17.999268%,24.699402%);fill-opacity:1;" d="M 239.753906 66.492188 C 232.378906 51.074219 217 42.027344 200.984375 42.027344 C 194.789063 42.027344 188.460938 43.386719 182.519531 46.222656 C 176.597656 49.058594 171.570313 53.09375 167.6875 57.910156 L 182.597656 70.003906 C 184.734375 67.34375 187.46875 65.152344 190.789063 63.558594 C 194.109375 61.988281 197.566406 61.25 200.964844 61.25 C 209.855469 61.25 218.359375 66.21875 222.417969 74.761719 C 223.988281 78.082031 224.726563 81.519531 224.726563 84.953125 C 224.726563 93.828125 219.757813 102.3125 211.214844 106.390625 C 207.953125 107.941406 204.59375 108.660156 201.234375 108.699219 L 201.234375 127.898438 C 207.371094 127.878906 213.621094 126.523438 219.484375 123.707031 C 234.902344 116.347656 243.949219 100.972656 243.929688 84.953125 C 243.929688 78.761719 242.570313 72.433594 239.753906 66.492188 "/>
<path style=" stroke:none;fill-rule:nonzero;fill:rgb(44.299316%,41.999817%,50.19989%);fill-opacity:1;" d="M 162.210938 36.554688 C 159.414063 30.691406 150.347656 29.175781 144.078125 32.164063 C 137.808594 35.175781 134.992188 42.359375 137.789063 48.222656 C 140.582031 54.085938 147.921875 56.414063 154.191406 53.425781 C 160.464844 50.414063 165.007813 42.414063 162.210938 36.554688 "/>
<path style=" stroke:none;fill-rule:nonzero;fill:rgb(44.299316%,41.999817%,50.19989%);fill-opacity:1;" d="M 167.707031 57.890625 C 165.550781 60.550781 162.8125 62.761719 159.492188 64.335938 C 156.171875 65.929688 152.71875 66.664063 149.300781 66.664063 C 140.429688 66.644531 131.945313 61.675781 127.867188 53.152344 C 126.292969 49.8125 125.554688 46.378906 125.554688 42.960938 C 125.554688 34.085938 130.527344 25.585938 139.070313 21.527344 C 142.332031 19.972656 145.710938 19.234375 149.085938 19.195313 L 149.066406 -0.00390625 C 142.933594 0.015625 136.679688 1.394531 130.816406 4.1875 C 115.382813 11.546875 106.335938 26.941406 106.355469 42.960938 C 106.355469 49.152344 107.714844 55.464844 110.546875 61.402344 C 117.90625 76.820313 133.265625 85.867188 149.28125 85.867188 L 149.300781 85.867188 C 155.511719 85.867188 161.824219 84.507813 167.765625 81.671875 C 173.6875 78.839844 178.714844 74.800781 182.617188 69.984375 L 167.707031 57.890625 "/>
<path style=" stroke:none;fill-rule:nonzero;fill:rgb(8.198547%,8.599854%,8.599854%);fill-opacity:1;" d="M 37.703125 165.660156 C 37.703125 162.457031 38.324219 157.835938 42.597656 157.835938 C 46.964844 157.835938 47.585938 162.457031 47.585938 165.660156 Z M 42.695313 156.304688 C 37.160156 156.304688 32.890625 161.390625 32.890625 167.3125 C 32.890625 173.253906 37.160156 178.320313 42.695313 178.320313 C 47.449219 178.320313 49.914063 176.359375 51.914063 173.429688 L 50.847656 172.710938 C 49.160156 174.980469 47.140625 176.804688 44.167969 176.804688 C 40.324219 176.804688 37.703125 173.332031 37.703125 167.175781 L 52.128906 167.175781 C 52.128906 159.972656 47.898438 156.304688 42.695313 156.304688 "/>
<path style=" stroke:none;fill-rule:nonzero;fill:rgb(8.198547%,8.599854%,8.599854%);fill-opacity:1;" d="M 71.640625 156.304688 C 68.574219 156.304688 66.4375 157.992188 64.828125 160.769531 L 64.730469 160.769531 L 64.730469 156.574219 L 57.738281 156.847656 L 57.738281 158.363281 C 60.109375 158.363281 60.90625 158.808594 60.90625 160.226563 L 60.886719 177.777344 L 65.097656 177.777344 L 65.097656 165.621094 C 65.097656 162.246094 67.234375 158.089844 70.535156 158.089844 C 72.183594 158.089844 74.085938 159.023438 74.085938 162.90625 L 74.085938 177.777344 L 78.28125 177.777344 L 78.28125 164.457031 C 78.28125 157.953125 74.804688 156.304688 71.640625 156.304688 "/>
<path style=" stroke:none;fill-rule:nonzero;fill:rgb(8.198547%,8.599854%,8.599854%);fill-opacity:1;" d="M 98.765625 171.992188 C 98.765625 175.5625 97.25 176.804688 95.523438 176.804688 C 94.21875 176.804688 93.074219 176.359375 93.074219 174.476563 L 93.074219 158.363281 L 99.269531 158.363281 L 99.269531 156.847656 L 93.074219 156.847656 L 93.074219 149.898438 L 91.464844 149.898438 C 90.296875 155.332031 89.773438 156.496094 85.621094 156.847656 L 85.621094 158.363281 L 88.882813 158.363281 L 88.882813 172.886719 C 88.882813 177.292969 91.289063 178.320313 94.414063 178.320313 C 98.820313 178.320313 100.027344 175.835938 100.027344 171.816406 L 100.027344 171.058594 L 98.765625 171.058594 L 98.765625 171.992188 "/>
<path style=" stroke:none;fill-rule:nonzero;fill:rgb(8.198547%,8.599854%,8.599854%);fill-opacity:1;" d="M 118.023438 156.304688 C 114.316406 156.304688 112.839844 159.082031 111.90625 162.632813 L 111.828125 162.632813 L 111.828125 156.574219 L 104.742188 156.847656 L 104.742188 158.363281 C 107.152344 158.363281 107.945313 158.808594 107.945313 160.226563 L 107.945313 177.777344 L 112.121094 177.777344 C 112.121094 177.777344 112.140625 175.46875 112.140625 171.777344 C 112.140625 163.292969 114.355469 157.835938 117.34375 157.835938 L 117.925781 157.914063 C 117.304688 158.324219 116.992188 158.945313 116.992188 159.644531 C 116.992188 160.886719 117.75 161.738281 119.167969 161.738281 C 120.546875 161.738281 121.535156 160.59375 121.535156 159.390625 C 121.535156 158.050781 120.46875 156.304688 118.023438 156.304688 "/>
<path style=" stroke:none;fill-rule:nonzero;fill:rgb(8.198547%,8.599854%,8.599854%);fill-opacity:1;" d="M 139.183594 170.03125 C 139.183594 173.816406 136.71875 176.457031 133.925781 176.457031 C 131.828125 176.457031 130.796875 175.019531 130.796875 173.019531 C 130.796875 169.136719 136.058594 166.925781 139.183594 166.148438 Z M 144.738281 175.738281 C 143.902344 175.738281 143.359375 175.46875 143.359375 173.234375 L 143.359375 162.457031 C 143.359375 157.742188 140.523438 156.304688 134.71875 156.304688 C 130.660156 156.304688 127.148438 158.59375 127.148438 161.292969 C 127.148438 162.632813 128.214844 163.894531 129.730469 163.894531 C 131.246094 163.894531 132.3125 162.632813 132.3125 161.292969 C 132.3125 160.050781 131.59375 159.15625 130.390625 158.945313 C 131.730469 158.089844 133.03125 157.835938 134.585938 157.835938 C 136.273438 157.835938 139.183594 158.363281 139.183594 160.59375 L 139.183594 164.730469 C 135.378906 166.03125 125.984375 168.089844 125.984375 173.195313 C 125.984375 176.671875 129.109375 178.320313 132.273438 178.320313 C 135.574219 178.320313 138.195313 177.351563 139.4375 174.050781 L 139.535156 174.050781 C 139.882813 176.359375 140.523438 178.050781 143.144531 178.050781 C 146.3125 178.050781 147.726563 175.507813 147.726563 172.613281 L 146.484375 172.613281 C 146.484375 173.679688 146.175781 175.738281 144.738281 175.738281 "/>
<path style=" stroke:none;fill-rule:nonzero;fill:rgb(8.198547%,8.599854%,8.599854%);fill-opacity:1;" d="M 171.703125 165.660156 C 171.703125 162.457031 172.347656 157.835938 176.617188 157.835938 C 180.984375 157.835938 181.605469 162.457031 181.605469 165.660156 Z M 176.695313 156.304688 C 171.179688 156.304688 166.910156 161.390625 166.910156 167.3125 C 166.910156 173.253906 171.179688 178.320313 176.695313 178.320313 C 181.472656 178.320313 183.917969 176.359375 185.917969 173.429688 L 184.847656 172.710938 C 183.160156 174.980469 181.160156 176.804688 178.171875 176.804688 C 174.347656 176.804688 171.703125 173.332031 171.703125 167.175781 L 186.148438 167.175781 C 186.148438 159.972656 181.917969 156.304688 176.695313 156.304688 "/>
<path style=" stroke:none;fill-rule:nonzero;fill:rgb(8.198547%,8.599854%,8.599854%);fill-opacity:1;" d="M 234.53125 156.847656 L 234.53125 158.363281 C 237.210938 158.363281 238.007813 158.808594 238.007813 160.226563 L 238.007813 170.203125 C 237.617188 173.15625 236.007813 176.535156 232.355469 176.535156 C 229.988281 176.535156 229.019531 174.769531 229.019531 172.261719 L 229.019531 156.847656 L 221.660156 156.847656 L 221.660156 158.363281 C 224.027344 158.363281 224.824219 158.808594 224.824219 160.226563 L 224.824219 170.300781 C 224.824219 175.5625 227.445313 178.320313 231.464844 178.320313 C 234.53125 178.320313 236.667969 176.632813 238.277344 173.875 L 238.375 173.875 L 238.375 177.777344 L 242.199219 177.777344 L 242.199219 156.847656 L 234.53125 156.847656 "/>
<path style=" stroke:none;fill-rule:nonzero;fill:rgb(8.198547%,8.599854%,8.599854%);fill-opacity:1;" d="M 197.507813 153.527344 C 197.507813 149.976563 200.050781 148.132813 203.449219 148.132813 C 208.613281 148.132813 211.136719 153.082031 212.300781 157.488281 L 213.542969 157.488281 L 213.542969 147.160156 L 212.03125 147.160156 C 211.894531 147.605469 211.332031 149.199219 210.652344 149.199219 C 209.585938 149.199219 207.449219 146.617188 203.390625 146.617188 C 198.632813 146.617188 193.859375 149.742188 193.859375 155.082031 C 193.859375 166.945313 211.679688 161.023438 211.679688 171.039063 C 211.679688 174.652344 208.417969 176.863281 204.496094 176.863281 C 198.402344 176.863281 195.644531 173.390625 194.652344 168.652344 L 193.3125 168.652344 C 194.285156 174.417969 197.800781 178.339844 204.710938 178.339844 C 210.59375 178.320313 215.332031 174.574219 215.332031 168.398438 C 215.332031 157.449219 197.507813 162.03125 197.507813 153.527344 "/>
<g clip-path="url(#clip1)" clip-rule="nonzero">
<path style=" stroke:none;fill-rule:nonzero;fill:rgb(8.198547%,8.599854%,8.599854%);fill-opacity:1;" d="M 262.023438 176.804688 C 260.546875 176.804688 256.9375 175.429688 256.9375 168.652344 L 256.9375 167.449219 C 256.9375 161.835938 258.996094 157.835938 262.371094 157.835938 C 266.21875 157.835938 267.828125 161.835938 267.828125 167.449219 C 267.828125 174.050781 266.21875 176.804688 262.023438 176.804688 M 262.953125 156.304688 C 259.402344 156.304688 257.789063 158.457031 256.683594 160.945313 L 256.585938 160.945313 L 256.585938 156.847656 L 249.363281 157.121094 L 249.363281 158.632813 C 251.945313 158.632813 252.761719 159.078125 252.761719 160.496094 L 252.761719 186.980469 L 256.957031 186.980469 L 256.9375 174.710938 L 257.035156 174.710938 C 258.371094 177.253906 259.828125 178.320313 262.992188 178.320313 C 268.351563 178.320313 272.351563 172.980469 272.351563 167.078125 C 272.351563 161.527344 268.179688 156.304688 262.953125 156.304688 "/>
</g>
<path style=" stroke:none;fill-rule:nonzero;fill:rgb(8.198547%,8.599854%,8.599854%);fill-opacity:1;" d="M 294.757813 149.449219 C 295.570313 148.964844 296.097656 148.246094 296.097656 147.625 C 296.097656 146.773438 295.648438 146.148438 294.582031 146.148438 C 293.746094 146.148438 293.203125 146.597656 292.660156 147.179688 L 286.117188 153.820313 L 287.902344 153.820313 L 294.757813 149.449219 "/>
<path style=" stroke:none;fill-rule:nonzero;fill:rgb(8.198547%,8.599854%,8.599854%);fill-opacity:1;" d="M 284.117188 165.660156 C 284.117188 162.457031 284.738281 157.835938 289.011719 157.835938 C 293.378906 157.835938 294 162.457031 294 165.660156 Z M 289.105469 156.304688 C 283.574219 156.304688 279.304688 161.390625 279.304688 167.3125 C 279.304688 173.253906 283.574219 178.320313 289.105469 178.320313 C 293.863281 178.320313 296.328125 176.359375 298.328125 173.429688 L 297.261719 172.710938 C 295.570313 174.980469 293.574219 176.804688 290.5625 176.804688 C 286.757813 176.804688 284.117188 173.332031 284.117188 167.175781 L 298.542969 167.175781 C 298.542969 159.972656 294.328125 156.304688 289.105469 156.304688 "/>
<path style=" stroke:none;fill-rule:nonzero;fill:rgb(8.198547%,8.599854%,8.599854%);fill-opacity:1;" d="M 304.347656 150.519531 C 306.929688 150.519531 307.726563 150.964844 307.726563 152.382813 L 307.707031 177.777344 L 311.921875 177.777344 L 311.921875 148.734375 L 304.347656 149.003906 L 304.347656 150.519531 "/>
<path style=" stroke:none;fill-rule:nonzero;fill:rgb(8.198547%,8.599854%,8.599854%);fill-opacity:1;" d="M 363.894531 172.691406 C 362.320313 175 360.320313 176.785156 357.117188 176.785156 C 352.339844 176.785156 350.304688 172.378906 350.304688 166.808594 C 350.304688 161.15625 353.019531 157.820313 356.710938 157.820313 C 361.640625 157.820313 359.195313 163.214844 362.320313 163.214844 C 363.601563 163.214844 364.726563 162.285156 364.726563 160.984375 C 364.726563 158.011719 360.535156 156.285156 357.117188 156.285156 C 351.136719 156.285156 345.488281 160.925781 345.488281 167.292969 C 345.488281 173.660156 350.167969 178.300781 356.261719 178.300781 C 360.417969 178.300781 363.175781 176.339844 365 173.214844 L 363.894531 172.691406 "/>
<path style=" stroke:none;fill-rule:nonzero;fill:rgb(8.198547%,8.599854%,8.599854%);fill-opacity:1;" d="M 151.417969 150.519531 C 154 150.519531 154.796875 150.964844 154.796875 152.382813 L 154.8125 177.777344 L 158.96875 177.777344 L 158.988281 148.734375 L 151.417969 149.003906 L 151.417969 150.519531 "/>
<path style=" stroke:none;fill-rule:nonzero;fill:rgb(8.198547%,8.599854%,8.599854%);fill-opacity:1;" d="M 324.421875 165.660156 C 324.421875 162.457031 325.0625 157.835938 329.335938 157.835938 C 333.683594 157.835938 334.324219 162.457031 334.324219 165.660156 Z M 329.414063 156.304688 C 323.898438 156.304688 319.609375 161.390625 319.609375 167.3125 C 319.609375 173.253906 323.898438 178.320313 329.414063 178.320313 C 334.1875 178.320313 336.636719 176.359375 338.636719 173.429688 L 337.566406 172.710938 C 335.878906 174.980469 333.878906 176.804688 330.886719 176.804688 C 327.0625 176.804688 324.421875 173.332031 324.421875 167.175781 L 338.867188 167.175781 C 338.867188 159.972656 334.636719 156.304688 329.414063 156.304688 "/>
<path style=" stroke:none;fill-rule:nonzero;fill:rgb(8.198547%,8.599854%,8.599854%);fill-opacity:1;" d="M 14.40625 176.804688 C 10.523438 176.804688 5.183594 173.15625 5.183594 162.457031 C 5.183594 152.789063 8.117188 148.109375 14.542969 148.109375 C 20.230469 148.109375 22.328125 152.964844 23.707031 157.914063 L 24.929688 157.914063 L 24.929688 147.394531 L 23.839844 147.394531 C 23.589844 148.207031 22.832031 149.101563 22.015625 149.101563 C 21.257813 149.101563 18.054688 146.597656 14.09375 146.597656 C 5.980469 146.597656 0 154.207031 0 162.457031 C 0 170.710938 5.980469 178.320313 13.609375 178.320313 C 21.007813 178.320313 24.578125 174.554688 25.589844 168.632813 L 24.25 168.632813 C 23.238281 173.351563 20.484375 176.804688 14.40625 176.804688 "/>
</g>
</svg>
